<?xml version="1.0" encoding="UTF-8" standalone="no"?><svg xmlns="http://www.w3.org/2000/svg" xmlns:xlink="http://www.w3.org/1999/xlink" contentScriptType="application/ecmascript" contentStyleType="text/css" height="826px" preserveAspectRatio="none" style="width:439px;height:826px;" version="1.1" viewBox="0 0 439 826" width="439px" zoomAndPan="magnify"><defs><filter height="300%" id="ffeqqui5sanji" width="300%" x="-1" y="-1"><feGaussianBlur result="blurOut" stdDeviation="2.0"/><feColorMatrix in="blurOut" result="blurOut2" type="matrix" values="0 0 0 0 0 0 0 0 0 0 0 0 0 0 0 0 0 0 .4 0"/><feOffset dx="4.0" dy="4.0" in="blurOut2" result="blurOut3"/><feBlend in="SourceGraphic" in2="blurOut3" mode="normal"/></filter></defs><g><!--MD5=[107842e6e507752d9b688223fd6ddbe0]
class ThreadyMain--><rect fill="#FEFECE" filter="url(#ffeqqui5sanji)" height="48" id="ThreadyMain" style="stroke: #A80036; stroke-width: 1.5;" width="111" x="161.5" y="8"/><ellipse cx="176.5" cy="24" fill="#ADD1B2" rx="11" ry="11" style="stroke: #A80036; stroke-width: 1.0;"/><path d="M179.4688,29.6406 Q178.8906,29.9375 178.25,30.0781 Q177.6094,30.2344 176.9063,30.2344 Q174.4063,30.2344 173.0781,28.5938 Q171.7656,26.9375 171.7656,23.8125 Q171.7656,20.6875 173.0781,19.0313 Q174.4063,17.375 176.9063,17.375 Q177.6094,17.375 178.25,17.5313 Q178.9063,17.6875 179.4688,17.9844 L179.4688,20.7031 Q178.8438,20.125 178.25,19.8594 Q177.6563,19.5781 177.0313,19.5781 Q175.6875,19.5781 175,20.6563 Q174.3125,21.7188 174.3125,23.8125 Q174.3125,25.9063 175,26.9844 Q175.6875,28.0469 177.0313,28.0469 Q177.6563,28.0469 178.25,27.7813 Q178.8438,27.5 179.4688,26.9219 L179.4688,29.6406 Z "/><text fill="#000000" font-family="sans-serif" font-size="12" lengthAdjust="spacingAndGlyphs" textLength="79" x="190.5" y="28.1543">ThreadyMain</text><line style="stroke: #A80036; stroke-width: 1.5;" x1="162.5" x2="271.5" y1="40" y2="40"/><line style="stroke: #A80036; stroke-width: 1.5;" x1="162.5" x2="271.5" y1="48" y2="48"/><!--MD5=[dcf275be2cdf449527c3bc7531c4e6ba]
class Thready--><rect fill="#FEFECE" filter="url(#ffeqqui5sanji)" height="188.8516" id="Thready" style="stroke: #A80036; stroke-width: 1.5;" width="422" x="6" y="116"/><ellipse cx="187.75" cy="132" fill="#ADD1B2" rx="11" ry="11" style="stroke: #A80036; stroke-width: 1.0;"/><path d="M190.7188,137.6406 Q190.1406,137.9375 189.5,138.0781 Q188.8594,138.2344 188.1563,138.2344 Q185.6563,138.2344 184.3281,136.5938 Q183.0156,134.9375 183.0156,131.8125 Q183.0156,128.6875 184.3281,127.0313 Q185.6563,125.375 188.1563,125.375 Q188.8594,125.375 189.5,125.5313 Q190.1563,125.6875 190.7188,125.9844 L190.7188,128.7031 Q190.0938,128.125 189.5,127.8594 Q188.9063,127.5781 188.2813,127.5781 Q186.9375,127.5781 186.25,128.6563 Q185.5625,129.7188 185.5625,131.8125 Q185.5625,133.9063 186.25,134.9844 Q186.9375,136.0469 188.2813,136.0469 Q188.9063,136.0469 189.5,135.7813 Q190.0938,135.5 190.7188,134.9219 L190.7188,137.6406 Z "/><text fill="#000000" font-family="sans-serif" font-size="12" lengthAdjust="spacingAndGlyphs" textLength="50" x="208.25" y="136.1543">Thready</text><line style="stroke: #A80036; stroke-width: 1.5;" x1="7" x2="427" y1="148" y2="148"/><rect fill="none" height="6" style="stroke: #C82930; stroke-width: 1.0;" width="6" x="14" y="156"/><text fill="#000000" font-family="sans-serif" font-size="11" lengthAdjust="spacingAndGlyphs" textLength="112" x="26" y="162.2104">string m_ProcName</text><rect fill="none" height="6" style="stroke: #C82930; stroke-width: 1.0;" width="6" x="14" y="168.8047"/><text fill="#000000" font-family="sans-serif" font-size="11" lengthAdjust="spacingAndGlyphs" textLength="127" x="26" y="175.0151">string m_ThreadName</text><rect fill="none" height="6" style="stroke: #C82930; stroke-width: 1.0;" width="6" x="14" y="181.6094"/><text fill="#000000" font-family="sans-serif" font-size="11" lengthAdjust="spacingAndGlyphs" textLength="90" x="26" y="187.8198">bool m_Running</text><rect fill="none" height="6" style="stroke: #C82930; stroke-width: 1.0;" width="6" x="14" y="194.4141"/><text fill="#000000" font-family="sans-serif" font-size="11" lengthAdjust="spacingAndGlyphs" textLength="89" x="26" y="200.6245">bool m_Tamper</text><rect fill="none" height="6" style="stroke: #C82930; stroke-width: 1.0;" width="6" x="14" y="207.2188"/><text fill="#000000" font-family="sans-serif" font-size="11" lengthAdjust="spacingAndGlyphs" textLength="92" x="26" y="213.4292">bool m_Verbose</text><rect fill="none" height="6" style="stroke: #C82930; stroke-width: 1.0;" width="6" x="14" y="220.0234"/><text fill="#000000" font-family="sans-serif" font-size="11" lengthAdjust="spacingAndGlyphs" textLength="143" x="26" y="226.2339">PaceMaker m_PaceMaker</text><rect fill="none" height="6" style="stroke: #C82930; stroke-width: 1.0;" width="6" x="14" y="232.8281"/><text fill="#000000" font-family="sans-serif" font-size="11" lengthAdjust="spacingAndGlyphs" textLength="160" x="26" y="239.0386">milliseconds m_NormalLimit</text><rect fill="none" height="6" style="stroke: #C82930; stroke-width: 1.0;" width="6" x="14" y="245.6328"/><text fill="#000000" font-family="sans-serif" font-size="11" lengthAdjust="spacingAndGlyphs" textLength="168" x="26" y="251.8433">milliseconds m_AbsoluteLimit</text><line style="stroke: #A80036; stroke-width: 1.5;" x1="7" x2="427" y1="258.4375" y2="258.4375"/><ellipse cx="17" cy="269.4375" fill="#84BE84" rx="3" ry="3" style="stroke: #038048; stroke-width: 1.0;"/><text fill="#000000" font-family="sans-serif" font-size="11" lengthAdjust="spacingAndGlyphs" textLength="396" x="26" y="272.6479">Thready( procName, id, normalLimit, absoluteLimit, tamper, verbose)</text><ellipse cx="17" cy="282.2422" fill="#84BE84" rx="3" ry="3" style="stroke: #038048; stroke-width: 1.0;"/><text fill="#000000" font-family="sans-serif" font-size="11" lengthAdjust="spacingAndGlyphs" textLength="54" x="26" y="285.4526">void run()</text><ellipse cx="17" cy="295.0469" fill="#84BE84" rx="3" ry="3" style="stroke: #038048; stroke-width: 1.0;"/><text fill="#000000" font-family="sans-serif" font-size="11" lengthAdjust="spacingAndGlyphs" textLength="79" x="26" y="298.2573">void quiesce()</text><!--MD5=[68b0d04cd6e9de4ea381143cc5ff387e]
class PaceMaker--><rect fill="#FEFECE" filter="url(#ffeqqui5sanji)" height="163.2422" id="PaceMaker" style="stroke: #A80036; stroke-width: 1.5;" width="394" x="20" y="365"/><ellipse cx="178.25" cy="381" fill="#ADD1B2" rx="11" ry="11" style="stroke: #A80036; stroke-width: 1.0;"/><path d="M181.2188,386.6406 Q180.6406,386.9375 180,387.0781 Q179.3594,387.2344 178.6563,387.2344 Q176.1563,387.2344 174.8281,385.5938 Q173.5156,383.9375 173.5156,380.8125 Q173.5156,377.6875 174.8281,376.0313 Q176.1563,374.375 178.6563,374.375 Q179.3594,374.375 180,374.5313 Q180.6563,374.6875 181.2188,374.9844 L181.2188,377.7031 Q180.5938,377.125 180,376.8594 Q179.4063,376.5781 178.7813,376.5781 Q177.4375,376.5781 176.75,377.6563 Q176.0625,378.7188 176.0625,380.8125 Q176.0625,382.9063 176.75,383.9844 Q177.4375,385.0469 178.7813,385.0469 Q179.4063,385.0469 180,384.7813 Q180.5938,384.5 181.2188,383.9219 L181.2188,386.6406 Z "/><text fill="#000000" font-family="sans-serif" font-size="12" lengthAdjust="spacingAndGlyphs" textLength="69" x="198.75" y="385.1543">PaceMaker</text><line style="stroke: #A80036; stroke-width: 1.5;" x1="21" x2="413" y1="397" y2="397"/><rect fill="none" height="6" style="stroke: #C82930; stroke-width: 1.0;" width="6" x="28" y="405"/><text fill="#000000" font-family="sans-serif" font-size="11" lengthAdjust="spacingAndGlyphs" textLength="112" x="40" y="411.2104">string m_ProcName</text><rect fill="none" height="6" style="stroke: #C82930; stroke-width: 1.0;" width="6" x="28" y="417.8047"/><text fill="#000000" font-family="sans-serif" font-size="11" lengthAdjust="spacingAndGlyphs" textLength="127" x="40" y="424.0151">string m_ThreadName</text><rect fill="none" height="6" style="stroke: #C82930; stroke-width: 1.0;" width="6" x="28" y="430.6094"/><text fill="#000000" font-family="sans-serif" font-size="11" lengthAdjust="spacingAndGlyphs" textLength="121" x="40" y="436.8198">string m_ActualName</text><rect fill="none" height="6" style="stroke: #C82930; stroke-width: 1.0;" width="6" x="28" y="443.4141"/><text fill="#000000" font-family="sans-serif" font-size="11" lengthAdjust="spacingAndGlyphs" textLength="160" x="40" y="449.6245">milliseconds m_NormalLimit</text><rect fill="none" height="6" style="stroke: #C82930; stroke-width: 1.0;" width="6" x="28" y="456.2188"/><text fill="#000000" font-family="sans-serif" font-size="11" lengthAdjust="spacingAndGlyphs" textLength="168" x="40" y="462.4292">milliseconds m_AbsoluteLimit</text><rect fill="none" height="6" style="stroke: #C82930; stroke-width: 1.0;" width="6" x="28" y="469.0234"/><text fill="#000000" font-family="sans-serif" font-size="11" lengthAdjust="spacingAndGlyphs" textLength="115" x="40" y="475.2339">mutex m_BeatMutex</text><rect fill="none" height="6" style="stroke: #C82930; stroke-width: 1.0;" width="6" x="28" y="481.8281"/><text fill="#000000" font-family="sans-serif" font-size="11" lengthAdjust="spacingAndGlyphs" textLength="147" x="40" y="488.0386">mapped_region m_Region</text><line style="stroke: #A80036; stroke-width: 1.5;" x1="21" x2="413" y1="494.6328" y2="494.6328"/><ellipse cx="31" cy="505.6328" fill="#84BE84" rx="3" ry="3" style="stroke: #038048; stroke-width: 1.0;"/><text fill="#000000" font-family="sans-serif" font-size="11" lengthAdjust="spacingAndGlyphs" textLength="368" x="40" y="508.8433">PaceMaker( procName, threadName, normalLimit, absoluteLimit)</text><ellipse cx="31" cy="518.4375" fill="#84BE84" rx="3" ry="3" style="stroke: #038048; stroke-width: 1.0;"/><text fill="#000000" font-family="sans-serif" font-size="11" lengthAdjust="spacingAndGlyphs" textLength="66" x="40" y="521.6479">void pulse()</text><!--MD5=[5588a39ae170b77f50776c4d9116093e]
class Heartbeat--><rect fill="#FEFECE" filter="url(#ffeqqui5sanji)" height="227.2656" id="Heartbeat" style="stroke: #A80036; stroke-width: 1.5;" width="309" x="62.5" y="588"/><ellipse cx="180.75" cy="604" fill="#ADD1B2" rx="11" ry="11" style="stroke: #A80036; stroke-width: 1.0;"/><path d="M183.7188,609.6406 Q183.1406,609.9375 182.5,610.0781 Q181.8594,610.2344 181.1563,610.2344 Q178.6563,610.2344 177.3281,608.5938 Q176.0156,606.9375 176.0156,603.8125 Q176.0156,600.6875 177.3281,599.0313 Q178.6563,597.375 181.1563,597.375 Q181.8594,597.375 182.5,597.5313 Q183.1563,597.6875 183.7188,597.9844 L183.7188,600.7031 Q183.0938,600.125 182.5,599.8594 Q181.9063,599.5781 181.2813,599.5781 Q179.9375,599.5781 179.25,600.6563 Q178.5625,601.7188 178.5625,603.8125 Q178.5625,605.9063 179.25,606.9844 Q179.9375,608.0469 181.2813,608.0469 Q181.9063,608.0469 182.5,607.7813 Q183.0938,607.5 183.7188,606.9219 L183.7188,609.6406 Z "/><text fill="#000000" font-family="sans-serif" font-size="12" lengthAdjust="spacingAndGlyphs" textLength="64" x="201.25" y="608.1543">Heartbeat</text><line style="stroke: #A80036; stroke-width: 1.5;" x1="63.5" x2="370.5" y1="620" y2="620"/><ellipse cx="73.5" cy="631" fill="none" rx="3" ry="3" style="stroke: #038048; stroke-width: 1.0;"/><text fill="#000000" font-family="sans-serif" font-size="11" lengthAdjust="spacingAndGlyphs" textLength="160" x="82.5" y="634.2104">milliseconds m_NormalLimit</text><ellipse cx="73.5" cy="643.8047" fill="none" rx="3" ry="3" style="stroke: #038048; stroke-width: 1.0;"/><text fill="#000000" font-family="sans-serif" font-size="11" lengthAdjust="spacingAndGlyphs" textLength="168" x="82.5" y="647.0151">milliseconds m_AbsoluteLimit</text><ellipse cx="73.5" cy="656.6094" fill="none" rx="3" ry="3" style="stroke: #038048; stroke-width: 1.0;"/><text fill="#000000" font-family="sans-serif" font-size="11" lengthAdjust="spacingAndGlyphs" textLength="109" x="82.5" y="659.8198">TTickCount m_Beat</text><line style="stroke: #A80036; stroke-width: 1.5;" x1="63.5" x2="370.5" y1="666.4141" y2="666.4141"/><ellipse cx="73.5" cy="677.4141" fill="#84BE84" rx="3" ry="3" style="stroke: #038048; stroke-width: 1.0;"/><text fill="#000000" font-family="sans-serif" font-size="11" lengthAdjust="spacingAndGlyphs" textLength="136" x="82.5" y="680.6245">void SetCRC( heartbeat)</text><ellipse cx="73.5" cy="690.2188" fill="#84BE84" rx="3" ry="3" style="stroke: #038048; stroke-width: 1.0;"/><text fill="#000000" font-family="sans-serif" font-size="11" lengthAdjust="spacingAndGlyphs" textLength="144" x="82.5" y="693.4292">bool isCRCOK( heartbeat)</text><ellipse cx="73.5" cy="703.0234" fill="#84BE84" rx="3" ry="3" style="stroke: #038048; stroke-width: 1.0;"/><text fill="#000000" font-family="sans-serif" font-size="11" lengthAdjust="spacingAndGlyphs" textLength="283" x="82.5" y="706.2339">string makeActualName( procName, threadName)</text><ellipse cx="73.5" cy="715.8281" fill="#84BE84" rx="3" ry="3" style="stroke: #038048; stroke-width: 1.0;"/><text fill="#000000" font-family="sans-serif" font-size="11" lengthAdjust="spacingAndGlyphs" textLength="215" x="82.5" y="719.0386">string extractUserName( actualName)</text><ellipse cx="73.5" cy="728.6328" fill="#84BE84" rx="3" ry="3" style="stroke: #038048; stroke-width: 1.0;"/><text fill="#000000" font-family="sans-serif" font-size="11" lengthAdjust="spacingAndGlyphs" textLength="213" x="82.5" y="731.8433">string extractProcName( actualName)</text><ellipse cx="73.5" cy="741.4375" fill="#84BE84" rx="3" ry="3" style="stroke: #038048; stroke-width: 1.0;"/><text fill="#000000" font-family="sans-serif" font-size="11" lengthAdjust="spacingAndGlyphs" textLength="228" x="82.5" y="744.6479">string extractThreadName( actualName)</text><ellipse cx="73.5" cy="754.2422" fill="#84BE84" rx="3" ry="3" style="stroke: #038048; stroke-width: 1.0;"/><text fill="#000000" font-family="sans-serif" font-size="11" lengthAdjust="spacingAndGlyphs" textLength="206" x="82.5" y="757.4526">pid_t extractProcessID( actualName)</text><ellipse cx="73.5" cy="767.0469" fill="#84BE84" rx="3" ry="3" style="stroke: #038048; stroke-width: 1.0;"/><text fill="#000000" font-family="sans-serif" font-size="11" lengthAdjust="spacingAndGlyphs" textLength="200" x="82.5" y="770.2573">pid_t extractThreadID( actualName)</text><ellipse cx="73.5" cy="779.8516" fill="#84BE84" rx="3" ry="3" style="stroke: #038048; stroke-width: 1.0;"/><text fill="#000000" font-family="sans-serif" font-size="11" lengthAdjust="spacingAndGlyphs" textLength="138" x="82.5" y="783.062">bool isHeartbeat( name)</text><ellipse cx="73.5" cy="792.6563" fill="#84BE84" rx="3" ry="3" style="stroke: #038048; stroke-width: 1.0;"/><text fill="#000000" font-family="sans-serif" font-size="11" lengthAdjust="spacingAndGlyphs" textLength="159" x="82.5" y="795.8667">utin32)t calcCRC( heartbeat)</text><ellipse cx="73.5" cy="805.4609" fill="#84BE84" rx="3" ry="3" style="stroke: #038048; stroke-width: 1.0;"/><text fill="#000000" font-family="sans-serif" font-size="11" lengthAdjust="spacingAndGlyphs" textLength="150" x="82.5" y="808.6714">TTickCount tickCountNow()</text><!--MD5=[80d93f7c93f2d3089ec0f8279a42c7fd]
reverse link ThreadyMain to Thready--><path d="M217,69.27 C217,82.92 217,99.16 217,115.65 " fill="none" id="ThreadyMain&lt;-Thready" style="stroke: #A80036; stroke-width: 1.0;"/><polygon fill="#A80036" points="217,56.07,213,62.07,217,68.07,221,62.07,217,56.07" style="stroke: #A80036; stroke-width: 1.0;"/><text fill="#000000" font-family="sans-serif" font-size="13" lengthAdjust="spacingAndGlyphs" textLength="8" x="207.975" y="76.2437">1</text><text fill="#000000" font-family="sans-serif" font-size="13" lengthAdjust="spacingAndGlyphs" textLength="8" x="208.6938" y="104.8915">n</text><!--MD5=[5ad0e5791a84cf06e7445b0431ac0ada]
reverse link Thready to PaceMaker--><path d="M217,318.37 C217,333.99 217,349.85 217,364.83 " fill="none" id="Thready&lt;-PaceMaker" style="stroke: #A80036; stroke-width: 1.0;"/><polygon fill="#A80036" points="217,305.33,213,311.33,217,317.33,221,311.33,217,305.33" style="stroke: #A80036; stroke-width: 1.0;"/><text fill="#000000" font-family="sans-serif" font-size="13" lengthAdjust="spacingAndGlyphs" textLength="8" x="208.7063" y="324.9221">1</text><text fill="#000000" font-family="sans-serif" font-size="13" lengthAdjust="spacingAndGlyphs" textLength="8" x="208.6438" y="353.9503">1</text><!--MD5=[a77c26cdd2df13ac9166a3b620146dba]
reverse link PaceMaker to Heartbeat--><path d="M217,541.34 C217,556.47 217,572.26 217,587.78 " fill="none" id="PaceMaker&lt;-Heartbeat" style="stroke: #A80036; stroke-width: 1.0;"/><polygon fill="#A80036" points="217,528.25,213,534.25,217,540.25,221,534.25,217,528.25" style="stroke: #A80036; stroke-width: 1.0;"/><text fill="#000000" font-family="sans-serif" font-size="13" lengthAdjust="spacingAndGlyphs" textLength="8" x="208.6438" y="548.2609">1</text><text fill="#000000" font-family="sans-serif" font-size="13" lengthAdjust="spacingAndGlyphs" textLength="8" x="208.7438" y="577.077">1</text><!--MD5=[09ce3ecace2a11b9b6ecdb2bd43d601e]
@startuml
class ThreadyMain
class Thready {
-string m_ProcName
-string m_ThreadName
-bool m_Running
-bool m_Tamper
-bool m_Verbose
-PaceMaker m_PaceMaker
-milliseconds m_NormalLimit
-milliseconds m_AbsoluteLimit

+Thready( procName, id, normalLimit, absoluteLimit, tamper, verbose)
+void run()
+void quiesce()
}
class PaceMaker {
-string m_ProcName
-string m_ThreadName
-string m_ActualName
-milliseconds m_NormalLimit
-milliseconds m_AbsoluteLimit
-mutex m_BeatMutex
-mapped_region m_Region

+PaceMaker( procName, threadName, normalLimit, absoluteLimit)
+void pulse()
}
class Heartbeat {
+milliseconds m_NormalLimit
+milliseconds m_AbsoluteLimit
+TTickCount m_Beat

+void SetCRC( heartbeat)
+bool isCRCOK( heartbeat)
+string makeActualName( procName, threadName)
+string extractUserName( actualName)
+string extractProcName( actualName)
+string extractThreadName( actualName)
+pid_t extractProcessID( actualName)
+pid_t extractThreadID( actualName)
+bool isHeartbeat( name)
+utin32)t calcCRC( heartbeat)
+TTickCount tickCountNow()
}
ThreadyMain "1" *- - "n" Thready
Thready "1" *- - "1" PaceMaker
PaceMaker "1" *- - "1" Heartbeat
@enduml

PlantUML version 1.2020.02(Sun Mar 01 21:22:07 AEDT 2020)
(GPL source distribution)
Java Runtime: OpenJDK Runtime Environment
JVM: OpenJDK 64-Bit Server VM
Java Version: 11.0.19+7-post-Ubuntu-0ubuntu122.04.1
Operating System: Linux
Default Encoding: UTF-8
Language: en
Country: AU
--></g></svg>