<?xml version="1.0" encoding="UTF-8" standalone="no"?><svg xmlns="http://www.w3.org/2000/svg" xmlns:xlink="http://www.w3.org/1999/xlink" contentScriptType="application/ecmascript" contentStyleType="text/css" height="851px" preserveAspectRatio="none" style="width:603px;height:851px;" version="1.1" viewBox="0 0 603 851" width="603px" zoomAndPan="magnify"><defs><filter height="300%" id="f1ocqznkpcf621" width="300%" x="-1" y="-1"><feGaussianBlur result="blurOut" stdDeviation="2.0"/><feColorMatrix in="blurOut" result="blurOut2" type="matrix" values="0 0 0 0 0 0 0 0 0 0 0 0 0 0 0 0 0 0 .4 0"/><feOffset dx="4.0" dy="4.0" in="blurOut2" result="blurOut3"/><feBlend in="SourceGraphic" in2="blurOut3" mode="normal"/></filter></defs><g><!--MD5=[107842e6e507752d9b688223fd6ddbe0]
class ThreadyMain--><rect fill="#FEFECE" filter="url(#f1ocqznkpcf621)" height="48" id="ThreadyMain" style="stroke: #A80036; stroke-width: 1.5;" width="111" x="216" y="8"/><ellipse cx="231" cy="24" fill="#ADD1B2" rx="11" ry="11" style="stroke: #A80036; stroke-width: 1.0;"/><path d="M233.9688,29.6406 Q233.3906,29.9375 232.75,30.0781 Q232.1094,30.2344 231.4063,30.2344 Q228.9063,30.2344 227.5781,28.5938 Q226.2656,26.9375 226.2656,23.8125 Q226.2656,20.6875 227.5781,19.0313 Q228.9063,17.375 231.4063,17.375 Q232.1094,17.375 232.75,17.5313 Q233.4063,17.6875 233.9688,17.9844 L233.9688,20.7031 Q233.3438,20.125 232.75,19.8594 Q232.1563,19.5781 231.5313,19.5781 Q230.1875,19.5781 229.5,20.6563 Q228.8125,21.7188 228.8125,23.8125 Q228.8125,25.9063 229.5,26.9844 Q230.1875,28.0469 231.5313,28.0469 Q232.1563,28.0469 232.75,27.7813 Q233.3438,27.5 233.9688,26.9219 L233.9688,29.6406 Z "/><text fill="#000000" font-family="sans-serif" font-size="12" lengthAdjust="spacingAndGlyphs" textLength="79" x="245" y="28.1543">ThreadyMain</text><line style="stroke: #A80036; stroke-width: 1.5;" x1="217" x2="326" y1="40" y2="40"/><line style="stroke: #A80036; stroke-width: 1.5;" x1="217" x2="326" y1="48" y2="48"/><!--MD5=[dcf275be2cdf449527c3bc7531c4e6ba]
class Thready--><rect fill="#FEFECE" filter="url(#f1ocqznkpcf621)" height="214.4609" id="Thready" style="stroke: #A80036; stroke-width: 1.5;" width="443" x="50" y="116"/><ellipse cx="242.25" cy="132" fill="#ADD1B2" rx="11" ry="11" style="stroke: #A80036; stroke-width: 1.0;"/><path d="M245.2188,137.6406 Q244.6406,137.9375 244,138.0781 Q243.3594,138.2344 242.6563,138.2344 Q240.1563,138.2344 238.8281,136.5938 Q237.5156,134.9375 237.5156,131.8125 Q237.5156,128.6875 238.8281,127.0313 Q240.1563,125.375 242.6563,125.375 Q243.3594,125.375 244,125.5313 Q244.6563,125.6875 245.2188,125.9844 L245.2188,128.7031 Q244.5938,128.125 244,127.8594 Q243.4063,127.5781 242.7813,127.5781 Q241.4375,127.5781 240.75,128.6563 Q240.0625,129.7188 240.0625,131.8125 Q240.0625,133.9063 240.75,134.9844 Q241.4375,136.0469 242.7813,136.0469 Q243.4063,136.0469 244,135.7813 Q244.5938,135.5 245.2188,134.9219 L245.2188,137.6406 Z "/><text fill="#000000" font-family="sans-serif" font-size="12" lengthAdjust="spacingAndGlyphs" textLength="50" x="262.75" y="136.1543">Thready</text><line style="stroke: #A80036; stroke-width: 1.5;" x1="51" x2="492" y1="148" y2="148"/><rect fill="none" height="6" style="stroke: #C82930; stroke-width: 1.0;" width="6" x="58" y="156"/><text fill="#000000" font-family="sans-serif" font-size="11" lengthAdjust="spacingAndGlyphs" textLength="133" x="70" y="162.2104">string m_ProcessName</text><rect fill="none" height="6" style="stroke: #C82930; stroke-width: 1.0;" width="6" x="58" y="168.8047"/><text fill="#000000" font-family="sans-serif" font-size="11" lengthAdjust="spacingAndGlyphs" textLength="127" x="70" y="175.0151">string m_ThreadName</text><rect fill="none" height="6" style="stroke: #C82930; stroke-width: 1.0;" width="6" x="58" y="181.6094"/><text fill="#000000" font-family="sans-serif" font-size="11" lengthAdjust="spacingAndGlyphs" textLength="90" x="70" y="187.8198">bool m_Running</text><rect fill="none" height="6" style="stroke: #C82930; stroke-width: 1.0;" width="6" x="58" y="194.4141"/><text fill="#000000" font-family="sans-serif" font-size="11" lengthAdjust="spacingAndGlyphs" textLength="89" x="70" y="200.6245">bool m_Tamper</text><rect fill="none" height="6" style="stroke: #C82930; stroke-width: 1.0;" width="6" x="58" y="207.2188"/><text fill="#000000" font-family="sans-serif" font-size="11" lengthAdjust="spacingAndGlyphs" textLength="92" x="70" y="213.4292">bool m_Verbose</text><rect fill="none" height="6" style="stroke: #C82930; stroke-width: 1.0;" width="6" x="58" y="220.0234"/><text fill="#000000" font-family="sans-serif" font-size="11" lengthAdjust="spacingAndGlyphs" textLength="143" x="70" y="226.2339">PaceMaker m_PaceMaker</text><rect fill="none" height="6" style="stroke: #C82930; stroke-width: 1.0;" width="6" x="58" y="232.8281"/><text fill="#000000" font-family="sans-serif" font-size="11" lengthAdjust="spacingAndGlyphs" textLength="160" x="70" y="239.0386">milliseconds m_NormalLimit</text><rect fill="none" height="6" style="stroke: #C82930; stroke-width: 1.0;" width="6" x="58" y="245.6328"/><text fill="#000000" font-family="sans-serif" font-size="11" lengthAdjust="spacingAndGlyphs" textLength="168" x="70" y="251.8433">milliseconds m_AbsoluteLimit</text><rect fill="none" height="6" style="stroke: #C82930; stroke-width: 1.0;" width="6" x="58" y="258.4375"/><text fill="#000000" font-family="sans-serif" font-size="11" lengthAdjust="spacingAndGlyphs" textLength="98" x="70" y="264.6479">thread m_Thread</text><line style="stroke: #A80036; stroke-width: 1.5;" x1="51" x2="492" y1="271.2422" y2="271.2422"/><rect fill="#F24D5C" height="6" style="stroke: #C82930; stroke-width: 1.0;" width="6" x="58" y="279.2422"/><text fill="#000000" font-family="sans-serif" font-size="11" lengthAdjust="spacingAndGlyphs" textLength="54" x="70" y="285.4526">void run()</text><ellipse cx="61" cy="295.0469" fill="#84BE84" rx="3" ry="3" style="stroke: #038048; stroke-width: 1.0;"/><text fill="#000000" font-family="sans-serif" font-size="11" lengthAdjust="spacingAndGlyphs" textLength="417" x="70" y="298.2573">Thready( processName, id, normalLimit, absoluteLimit, tamper, verbose)</text><ellipse cx="61" cy="307.8516" fill="#84BE84" rx="3" ry="3" style="stroke: #038048; stroke-width: 1.0;"/><text fill="#000000" font-family="sans-serif" font-size="11" lengthAdjust="spacingAndGlyphs" textLength="62" x="70" y="311.062">void start()</text><ellipse cx="61" cy="320.6563" fill="#84BE84" rx="3" ry="3" style="stroke: #038048; stroke-width: 1.0;"/><text fill="#000000" font-family="sans-serif" font-size="11" lengthAdjust="spacingAndGlyphs" textLength="79" x="70" y="323.8667">void quiesce()</text><!--MD5=[68b0d04cd6e9de4ea381143cc5ff387e]
class PaceMaker--><rect fill="#FEFECE" filter="url(#f1ocqznkpcf621)" height="163.2422" id="PaceMaker" style="stroke: #A80036; stroke-width: 1.5;" width="415" x="64" y="390"/><ellipse cx="232.75" cy="406" fill="#ADD1B2" rx="11" ry="11" style="stroke: #A80036; stroke-width: 1.0;"/><path d="M235.7188,411.6406 Q235.1406,411.9375 234.5,412.0781 Q233.8594,412.2344 233.1563,412.2344 Q230.6563,412.2344 229.3281,410.5938 Q228.0156,408.9375 228.0156,405.8125 Q228.0156,402.6875 229.3281,401.0313 Q230.6563,399.375 233.1563,399.375 Q233.8594,399.375 234.5,399.5313 Q235.1563,399.6875 235.7188,399.9844 L235.7188,402.7031 Q235.0938,402.125 234.5,401.8594 Q233.9063,401.5781 233.2813,401.5781 Q231.9375,401.5781 231.25,402.6563 Q230.5625,403.7188 230.5625,405.8125 Q230.5625,407.9063 231.25,408.9844 Q231.9375,410.0469 233.2813,410.0469 Q233.9063,410.0469 234.5,409.7813 Q235.0938,409.5 235.7188,408.9219 L235.7188,411.6406 Z "/><text fill="#000000" font-family="sans-serif" font-size="12" lengthAdjust="spacingAndGlyphs" textLength="69" x="253.25" y="410.1543">PaceMaker</text><line style="stroke: #A80036; stroke-width: 1.5;" x1="65" x2="478" y1="422" y2="422"/><rect fill="none" height="6" style="stroke: #C82930; stroke-width: 1.0;" width="6" x="72" y="430"/><text fill="#000000" font-family="sans-serif" font-size="11" lengthAdjust="spacingAndGlyphs" textLength="133" x="84" y="436.2104">string m_ProcessName</text><rect fill="none" height="6" style="stroke: #C82930; stroke-width: 1.0;" width="6" x="72" y="442.8047"/><text fill="#000000" font-family="sans-serif" font-size="11" lengthAdjust="spacingAndGlyphs" textLength="127" x="84" y="449.0151">string m_ThreadName</text><rect fill="none" height="6" style="stroke: #C82930; stroke-width: 1.0;" width="6" x="72" y="455.6094"/><text fill="#000000" font-family="sans-serif" font-size="11" lengthAdjust="spacingAndGlyphs" textLength="121" x="84" y="461.8198">string m_ActualName</text><rect fill="none" height="6" style="stroke: #C82930; stroke-width: 1.0;" width="6" x="72" y="468.4141"/><text fill="#000000" font-family="sans-serif" font-size="11" lengthAdjust="spacingAndGlyphs" textLength="160" x="84" y="474.6245">milliseconds m_NormalLimit</text><rect fill="none" height="6" style="stroke: #C82930; stroke-width: 1.0;" width="6" x="72" y="481.2188"/><text fill="#000000" font-family="sans-serif" font-size="11" lengthAdjust="spacingAndGlyphs" textLength="168" x="84" y="487.4292">milliseconds m_AbsoluteLimit</text><rect fill="none" height="6" style="stroke: #C82930; stroke-width: 1.0;" width="6" x="72" y="494.0234"/><text fill="#000000" font-family="sans-serif" font-size="11" lengthAdjust="spacingAndGlyphs" textLength="115" x="84" y="500.2339">mutex m_BeatMutex</text><rect fill="none" height="6" style="stroke: #C82930; stroke-width: 1.0;" width="6" x="72" y="506.8281"/><text fill="#000000" font-family="sans-serif" font-size="11" lengthAdjust="spacingAndGlyphs" textLength="147" x="84" y="513.0386">mapped_region m_Region</text><line style="stroke: #A80036; stroke-width: 1.5;" x1="65" x2="478" y1="519.6328" y2="519.6328"/><ellipse cx="75" cy="530.6328" fill="#84BE84" rx="3" ry="3" style="stroke: #038048; stroke-width: 1.0;"/><text fill="#000000" font-family="sans-serif" font-size="11" lengthAdjust="spacingAndGlyphs" textLength="389" x="84" y="533.8433">PaceMaker( processName, threadName, normalLimit, absoluteLimit)</text><ellipse cx="75" cy="543.4375" fill="#84BE84" rx="3" ry="3" style="stroke: #038048; stroke-width: 1.0;"/><text fill="#000000" font-family="sans-serif" font-size="11" lengthAdjust="spacingAndGlyphs" textLength="66" x="84" y="546.6479">void pulse()</text><!--MD5=[cc99110d9c6a907c669d86144fedc9d7]
class SharedMemory--><rect fill="#FEFECE" filter="url(#f1ocqznkpcf621)" height="86.4141" id="SharedMemory" style="stroke: #A80036; stroke-width: 1.5;" width="221" x="6" y="683.5"/><ellipse cx="65.75" cy="699.5" fill="#ADD1B2" rx="11" ry="11" style="stroke: #A80036; stroke-width: 1.0;"/><path d="M68.7188,705.1406 Q68.1406,705.4375 67.5,705.5781 Q66.8594,705.7344 66.1563,705.7344 Q63.6563,705.7344 62.3281,704.0938 Q61.0156,702.4375 61.0156,699.3125 Q61.0156,696.1875 62.3281,694.5313 Q63.6563,692.875 66.1563,692.875 Q66.8594,692.875 67.5,693.0313 Q68.1563,693.1875 68.7188,693.4844 L68.7188,696.2031 Q68.0938,695.625 67.5,695.3594 Q66.9063,695.0781 66.2813,695.0781 Q64.9375,695.0781 64.25,696.1563 Q63.5625,697.2188 63.5625,699.3125 Q63.5625,701.4063 64.25,702.4844 Q64.9375,703.5469 66.2813,703.5469 Q66.9063,703.5469 67.5,703.2813 Q68.0938,703 68.7188,702.4219 L68.7188,705.1406 Z "/><text fill="#000000" font-family="sans-serif" font-size="12" lengthAdjust="spacingAndGlyphs" textLength="93" x="86.25" y="703.6543">SharedMemory</text><line style="stroke: #A80036; stroke-width: 1.5;" x1="7" x2="226" y1="715.5" y2="715.5"/><rect fill="none" height="6" style="stroke: #C82930; stroke-width: 1.0;" width="6" x="14" y="723.5"/><text fill="#000000" font-family="sans-serif" font-size="11" lengthAdjust="spacingAndGlyphs" textLength="147" x="26" y="729.7104">mapped_region m_Region</text><line style="stroke: #A80036; stroke-width: 1.5;" x1="7" x2="226" y1="736.3047" y2="736.3047"/><ellipse cx="17" cy="747.3047" fill="#84BE84" rx="3" ry="3" style="stroke: #038048; stroke-width: 1.0;"/><text fill="#000000" font-family="sans-serif" font-size="11" lengthAdjust="spacingAndGlyphs" textLength="195" x="26" y="750.5151">SharedMemory( name, numBytes)</text><ellipse cx="17" cy="760.1094" fill="#84BE84" rx="3" ry="3" style="stroke: #038048; stroke-width: 1.0;"/><text fill="#000000" font-family="sans-serif" font-size="11" lengthAdjust="spacingAndGlyphs" textLength="130" x="26" y="763.3198">write( dest, numBytes)</text><!--MD5=[5588a39ae170b77f50776c4d9116093e]
class Heartbeat--><rect fill="#FEFECE" filter="url(#f1ocqznkpcf621)" height="227.2656" id="Heartbeat" style="stroke: #A80036; stroke-width: 1.5;" width="330" x="262.5" y="613"/><ellipse cx="391.25" cy="629" fill="#ADD1B2" rx="11" ry="11" style="stroke: #A80036; stroke-width: 1.0;"/><path d="M394.2188,634.6406 Q393.6406,634.9375 393,635.0781 Q392.3594,635.2344 391.6563,635.2344 Q389.1563,635.2344 387.8281,633.5938 Q386.5156,631.9375 386.5156,628.8125 Q386.5156,625.6875 387.8281,624.0313 Q389.1563,622.375 391.6563,622.375 Q392.3594,622.375 393,622.5313 Q393.6563,622.6875 394.2188,622.9844 L394.2188,625.7031 Q393.5938,625.125 393,624.8594 Q392.4063,624.5781 391.7813,624.5781 Q390.4375,624.5781 389.75,625.6563 Q389.0625,626.7188 389.0625,628.8125 Q389.0625,630.9063 389.75,631.9844 Q390.4375,633.0469 391.7813,633.0469 Q392.4063,633.0469 393,632.7813 Q393.5938,632.5 394.2188,631.9219 L394.2188,634.6406 Z "/><text fill="#000000" font-family="sans-serif" font-size="12" lengthAdjust="spacingAndGlyphs" textLength="64" x="411.75" y="633.1543">Heartbeat</text><line style="stroke: #A80036; stroke-width: 1.5;" x1="263.5" x2="591.5" y1="645" y2="645"/><ellipse cx="273.5" cy="656" fill="none" rx="3" ry="3" style="stroke: #038048; stroke-width: 1.0;"/><text fill="#000000" font-family="sans-serif" font-size="11" lengthAdjust="spacingAndGlyphs" textLength="160" x="282.5" y="659.2104">milliseconds m_NormalLimit</text><ellipse cx="273.5" cy="668.8047" fill="none" rx="3" ry="3" style="stroke: #038048; stroke-width: 1.0;"/><text fill="#000000" font-family="sans-serif" font-size="11" lengthAdjust="spacingAndGlyphs" textLength="168" x="282.5" y="672.0151">milliseconds m_AbsoluteLimit</text><ellipse cx="273.5" cy="681.6094" fill="none" rx="3" ry="3" style="stroke: #038048; stroke-width: 1.0;"/><text fill="#000000" font-family="sans-serif" font-size="11" lengthAdjust="spacingAndGlyphs" textLength="109" x="282.5" y="684.8198">TTickCount m_Beat</text><line style="stroke: #A80036; stroke-width: 1.5;" x1="263.5" x2="591.5" y1="691.4141" y2="691.4141"/><ellipse cx="273.5" cy="702.4141" fill="#84BE84" rx="3" ry="3" style="stroke: #038048; stroke-width: 1.0;"/><text fill="#000000" font-family="sans-serif" font-size="11" lengthAdjust="spacingAndGlyphs" textLength="136" x="282.5" y="705.6245">void SetCRC( heartbeat)</text><ellipse cx="273.5" cy="715.2188" fill="#84BE84" rx="3" ry="3" style="stroke: #038048; stroke-width: 1.0;"/><text fill="#000000" font-family="sans-serif" font-size="11" lengthAdjust="spacingAndGlyphs" textLength="144" x="282.5" y="718.4292">bool isCRCOK( heartbeat)</text><ellipse cx="273.5" cy="728.0234" fill="#84BE84" rx="3" ry="3" style="stroke: #038048; stroke-width: 1.0;"/><text fill="#000000" font-family="sans-serif" font-size="11" lengthAdjust="spacingAndGlyphs" textLength="304" x="282.5" y="731.2339">string makeActualName( processName, threadName)</text><ellipse cx="273.5" cy="740.8281" fill="#84BE84" rx="3" ry="3" style="stroke: #038048; stroke-width: 1.0;"/><text fill="#000000" font-family="sans-serif" font-size="11" lengthAdjust="spacingAndGlyphs" textLength="215" x="282.5" y="744.0386">string extractUserName( actualName)</text><ellipse cx="273.5" cy="753.6328" fill="#84BE84" rx="3" ry="3" style="stroke: #038048; stroke-width: 1.0;"/><text fill="#000000" font-family="sans-serif" font-size="11" lengthAdjust="spacingAndGlyphs" textLength="234" x="282.5" y="756.8433">string extractProcessName( actualName)</text><ellipse cx="273.5" cy="766.4375" fill="#84BE84" rx="3" ry="3" style="stroke: #038048; stroke-width: 1.0;"/><text fill="#000000" font-family="sans-serif" font-size="11" lengthAdjust="spacingAndGlyphs" textLength="228" x="282.5" y="769.6479">string extractThreadName( actualName)</text><ellipse cx="273.5" cy="779.2422" fill="#84BE84" rx="3" ry="3" style="stroke: #038048; stroke-width: 1.0;"/><text fill="#000000" font-family="sans-serif" font-size="11" lengthAdjust="spacingAndGlyphs" textLength="206" x="282.5" y="782.4526">pid_t extractProcessID( actualName)</text><ellipse cx="273.5" cy="792.0469" fill="#84BE84" rx="3" ry="3" style="stroke: #038048; stroke-width: 1.0;"/><text fill="#000000" font-family="sans-serif" font-size="11" lengthAdjust="spacingAndGlyphs" textLength="200" x="282.5" y="795.2573">pid_t extractThreadID( actualName)</text><ellipse cx="273.5" cy="804.8516" fill="#84BE84" rx="3" ry="3" style="stroke: #038048; stroke-width: 1.0;"/><text fill="#000000" font-family="sans-serif" font-size="11" lengthAdjust="spacingAndGlyphs" textLength="138" x="282.5" y="808.062">bool isHeartbeat( name)</text><ellipse cx="273.5" cy="817.6563" fill="#84BE84" rx="3" ry="3" style="stroke: #038048; stroke-width: 1.0;"/><text fill="#000000" font-family="sans-serif" font-size="11" lengthAdjust="spacingAndGlyphs" textLength="159" x="282.5" y="820.8667">utin32)t calcCRC( heartbeat)</text><ellipse cx="273.5" cy="830.4609" fill="#84BE84" rx="3" ry="3" style="stroke: #038048; stroke-width: 1.0;"/><text fill="#000000" font-family="sans-serif" font-size="11" lengthAdjust="spacingAndGlyphs" textLength="150" x="282.5" y="833.6714">TTickCount tickCountNow()</text><!--MD5=[80d93f7c93f2d3089ec0f8279a42c7fd]
reverse link ThreadyMain to Thready--><path d="M271.5,69.27 C271.5,82.84 271.5,99.02 271.5,115.71 " fill="none" id="ThreadyMain&lt;-Thready" style="stroke: #A80036; stroke-width: 1.0;"/><polygon fill="#A80036" points="271.5,56.18,267.5,62.18,271.5,68.18,275.5,62.18,271.5,56.18" style="stroke: #A80036; stroke-width: 1.0;"/><text fill="#000000" font-family="sans-serif" font-size="13" lengthAdjust="spacingAndGlyphs" textLength="8" x="262.525" y="75.9851">1</text><text fill="#000000" font-family="sans-serif" font-size="13" lengthAdjust="spacingAndGlyphs" textLength="8" x="263.2313" y="105.0534">n</text><!--MD5=[5ad0e5791a84cf06e7445b0431ac0ada]
reverse link Thready to PaceMaker--><path d="M271.5,343.47 C271.5,359.18 271.5,374.96 271.5,389.8 " fill="none" id="Thready&lt;-PaceMaker" style="stroke: #A80036; stroke-width: 1.0;"/><polygon fill="#A80036" points="271.5,330.33,267.5,336.33,271.5,342.33,275.5,336.33,271.5,330.33" style="stroke: #A80036; stroke-width: 1.0;"/><text fill="#000000" font-family="sans-serif" font-size="13" lengthAdjust="spacingAndGlyphs" textLength="8" x="263.2188" y="350.4593">1</text><text fill="#000000" font-family="sans-serif" font-size="13" lengthAdjust="spacingAndGlyphs" textLength="8" x="263.1438" y="378.9176">1</text><!--MD5=[a77c26cdd2df13ac9166a3b620146dba]
reverse link PaceMaker to Heartbeat--><path d="M328.23,564.51 C337.9,580.19 348.04,596.64 357.99,612.78 " fill="none" id="PaceMaker&lt;-Heartbeat" style="stroke: #A80036; stroke-width: 1.0;"/><polygon fill="#A80036" points="321.29,553.25,321.0394,560.4567,327.5954,563.4599,327.846,556.2532,321.29,553.25" style="stroke: #A80036; stroke-width: 1.0;"/><text fill="#000000" font-family="sans-serif" font-size="13" lengthAdjust="spacingAndGlyphs" textLength="8" x="317.3682" y="573.2609">1</text><text fill="#000000" font-family="sans-serif" font-size="13" lengthAdjust="spacingAndGlyphs" textLength="8" x="345.2808" y="602.077">1</text><!--MD5=[cbe39c89db83cf171c5629fe0f5df8cf]
reverse link PaceMaker to SharedMemory--><path d="M215.1,564.56 C190.19,605.22 162.14,651.01 142.34,683.32 " fill="none" id="PaceMaker&lt;-SharedMemory" style="stroke: #A80036; stroke-width: 1.0;"/><polygon fill="#A80036" points="222.03,553.25,215.4831,556.273,215.7555,563.4789,222.3024,560.456,222.03,553.25" style="stroke: #A80036; stroke-width: 1.0;"/><text fill="#000000" font-family="sans-serif" font-size="13" lengthAdjust="spacingAndGlyphs" textLength="8" x="209.2678" y="573.2609">1</text><text fill="#000000" font-family="sans-serif" font-size="13" lengthAdjust="spacingAndGlyphs" textLength="8" x="137.8208" y="672.2874">1</text><!--MD5=[9eaf9fbe42fe3b9da5c5ad3cc19b069c]
@startuml
class ThreadyMain
class Thready {
-void run()
-string m_ProcessName
-string m_ThreadName
-bool m_Running
-bool m_Tamper
-bool m_Verbose
-PaceMaker m_PaceMaker
-milliseconds m_NormalLimit
-milliseconds m_AbsoluteLimit
-thread m_Thread

+Thready( processName, id, normalLimit, absoluteLimit, tamper, verbose)
+void start()
+void quiesce()
}
class PaceMaker {
-string m_ProcessName
-string m_ThreadName
-string m_ActualName
-milliseconds m_NormalLimit
-milliseconds m_AbsoluteLimit
-mutex m_BeatMutex
-mapped_region m_Region

+PaceMaker( processName, threadName, normalLimit, absoluteLimit)
+void pulse()
}

class SharedMemory {
-mapped_region m_Region
+SharedMemory( name, numBytes)
+write( dest, numBytes)
}

class Heartbeat {
+milliseconds m_NormalLimit
+milliseconds m_AbsoluteLimit
+TTickCount m_Beat

+void SetCRC( heartbeat)
+bool isCRCOK( heartbeat)
+string makeActualName( processName, threadName)
+string extractUserName( actualName)
+string extractProcessName( actualName)
+string extractThreadName( actualName)
+pid_t extractProcessID( actualName)
+pid_t extractThreadID( actualName)
+bool isHeartbeat( name)
+utin32)t calcCRC( heartbeat)
+TTickCount tickCountNow()
}
ThreadyMain "1" *- - "n" Thready
Thready "1" *- - "1" PaceMaker
PaceMaker "1" *- - "1" Heartbeat
PaceMaker "1" *- - "1" SharedMemory
@enduml

PlantUML version 1.2020.02(Sun Mar 01 21:22:07 AEDT 2020)
(GPL source distribution)
Java Runtime: OpenJDK Runtime Environment
JVM: OpenJDK 64-Bit Server VM
Java Version: 11.0.19+7-post-Ubuntu-0ubuntu122.04.1
Operating System: Linux
Default Encoding: UTF-8
Language: en
Country: AU
--></g></svg>